{
  "asset": { "version":"2.0","generator":"bevylog humanoid generator" },
  "scene": 0,
  "scenes": [{ "nodes":[0] }],
  "nodes": [ { "name":"Humanoid","mesh":0,"skin":0,"children":[1] },{ "name":"pelvis","translation":[0,1,0],"children":[2,10,13] },{ "name":"spine","translation":[0,0.39999998,0],"children":[3,4,7] },{ "name":"head","translation":[0,0.30000007,0] },{ "name":"l_shoulder","translation":[-0.45,0,0],"children":[5] },{ "name":"l_elbow","translation":[0,-0.39999998,0],"children":[6] },{ "name":"l_wrist","translation":[0,-0.39999998,0] },{ "name":"r_shoulder","translation":[0.45,0,0],"children":[8] },{ "name":"r_elbow","translation":[0,-0.39999998,0],"children":[9] },{ "name":"r_wrist","translation":[0,-0.39999998,0] },{ "name":"l_hip","translation":[-0.22,0,0],"children":[11] },{ "name":"l_knee","translation":[0,-0.5,0],"children":[12] },{ "name":"l_ankle","translation":[0,-0.5,0] },{ "name":"r_hip","translation":[0.22,0,0],"children":[14] },{ "name":"r_knee","translation":[0,-0.5,0],"children":[15] },{ "name":"r_ankle","translation":[0,-0.5,0] } ],
  "skins": [{ "inverseBindMatrices":5,"joints":[1,2,3,4,5,6,7,8,9,10,11,12,13,14,15],"skeleton":0 }],
  "meshes": [
    {
      "name":"HumanoidMesh",
      "primitives": [
        {
          "attributes": { "POSITION":0,"NORMAL":1,"JOINTS_0":2,"WEIGHTS_0":3 },
          "indices": 4,
          "material": 0
        }
      ]
    }
  ],
  "materials": [
    {
      "name":"SkinMaterial",
      "pbrMetallicRoughness": { "baseColorFactor":[0.85,0.65,0.5,1.0],"metallicFactor":0.0,"roughnessFactor":0.85 },
      "doubleSided": true
    }
  ],
  "buffers": [{ "uri":"humanoid.bin","byteLength":5268 }],
  "bufferViews": [ { "buffer":0,"byteOffset":0,"byteLength":720,"target":34962 },{ "buffer":0,"byteOffset":720,"byteLength":720,"target":34962 },{ "buffer":0,"byteOffset":1440,"byteLength":480,"target":34962 },{ "buffer":0,"byteOffset":1920,"byteLength":960,"target":34962 },{ "buffer":0,"byteOffset":2880,"byteLength":240,"target":34963 },{ "buffer":0,"byteOffset":3120,"byteLength":960 },{ "buffer":0,"byteOffset":4080,"byteLength":12 },{ "buffer":0,"byteOffset":4092,"byteLength":48 },{ "buffer":0,"byteOffset":4140,"byteLength":48 },{ "buffer":0,"byteOffset":4188,"byteLength":48 },{ "buffer":0,"byteOffset":4236,"byteLength":48 },{ "buffer":0,"byteOffset":4284,"byteLength":48 },{ "buffer":0,"byteOffset":4332,"byteLength":48 },{ "buffer":0,"byteOffset":4380,"byteLength":48 },{ "buffer":0,"byteOffset":4428,"byteLength":48 },{ "buffer":0,"byteOffset":4476,"byteLength":12 },{ "buffer":0,"byteOffset":4488,"byteLength":48 },{ "buffer":0,"byteOffset":4536,"byteLength":48 },{ "buffer":0,"byteOffset":4584,"byteLength":48 },{ "buffer":0,"byteOffset":4632,"byteLength":48 },{ "buffer":0,"byteOffset":4680,"byteLength":48 },{ "buffer":0,"byteOffset":4728,"byteLength":48 },{ "buffer":0,"byteOffset":4776,"byteLength":48 },{ "buffer":0,"byteOffset":4824,"byteLength":48 },{ "buffer":0,"byteOffset":4872,"byteLength":12 },{ "buffer":0,"byteOffset":4884,"byteLength":48 },{ "buffer":0,"byteOffset":4932,"byteLength":48 },{ "buffer":0,"byteOffset":4980,"byteLength":48 },{ "buffer":0,"byteOffset":5028,"byteLength":48 },{ "buffer":0,"byteOffset":5076,"byteLength":48 },{ "buffer":0,"byteOffset":5124,"byteLength":48 },{ "buffer":0,"byteOffset":5172,"byteLength":48 },{ "buffer":0,"byteOffset":5220,"byteLength":48 } ],
  "accessors": [ { "bufferView":0,"componentType":5126,"count":60,"type":"VEC3","min":[-0.53999996,0,0],"max":[0.53999996,1.7,0] },{ "bufferView":1,"componentType":5126,"count":60,"type":"VEC3" },{ "bufferView":2,"componentType":5123,"count":60,"type":"VEC4" },{ "bufferView":3,"componentType":5126,"count":60,"type":"VEC4" },{ "bufferView":4,"componentType":5123,"count":120,"type":"SCALAR" },{ "bufferView":5,"componentType":5126,"count":15,"type":"MAT4" },{ "bufferView":6,"componentType":5126,"count":3,"type":"SCALAR","min":[0],"max":[1] },{ "bufferView":7,"componentType":5126,"count":3,"type":"VEC4" },{ "bufferView":8,"componentType":5126,"count":3,"type":"VEC4" },{ "bufferView":9,"componentType":5126,"count":3,"type":"VEC4" },{ "bufferView":10,"componentType":5126,"count":3,"type":"VEC4" },{ "bufferView":11,"componentType":5126,"count":3,"type":"VEC4" },{ "bufferView":12,"componentType":5126,"count":3,"type":"VEC4" },{ "bufferView":13,"componentType":5126,"count":3,"type":"VEC4" },{ "bufferView":14,"componentType":5126,"count":3,"type":"VEC4" },{ "bufferView":15,"componentType":5126,"count":3,"type":"SCALAR","min":[0],"max":[0.6] },{ "bufferView":16,"componentType":5126,"count":3,"type":"VEC4" },{ "bufferView":17,"componentType":5126,"count":3,"type":"VEC4" },{ "bufferView":18,"componentType":5126,"count":3,"type":"VEC4" },{ "bufferView":19,"componentType":5126,"count":3,"type":"VEC4" },{ "bufferView":20,"componentType":5126,"count":3,"type":"VEC4" },{ "bufferView":21,"componentType":5126,"count":3,"type":"VEC4" },{ "bufferView":22,"componentType":5126,"count":3,"type":"VEC4" },{ "bufferView":23,"componentType":5126,"count":3,"type":"VEC4" },{ "bufferView":24,"componentType":5126,"count":3,"type":"SCALAR","min":[0],"max":[1] },{ "bufferView":25,"componentType":5126,"count":3,"type":"VEC4" },{ "bufferView":26,"componentType":5126,"count":3,"type":"VEC4" },{ "bufferView":27,"componentType":5126,"count":3,"type":"VEC4" },{ "bufferView":28,"componentType":5126,"count":3,"type":"VEC4" },{ "bufferView":29,"componentType":5126,"count":3,"type":"VEC4" },{ "bufferView":30,"componentType":5126,"count":3,"type":"VEC4" },{ "bufferView":31,"componentType":5126,"count":3,"type":"VEC4" },{ "bufferView":32,"componentType":5126,"count":3,"type":"VEC4" } ],
  "animations": [ { "name":"Walk","samplers":[{ "input":6,"output":7,"interpolation":"LINEAR" },{ "input":6,"output":8,"interpolation":"LINEAR" },{ "input":6,"output":9,"interpolation":"LINEAR" },{ "input":6,"output":10,"interpolation":"LINEAR" },{ "input":6,"output":11,"interpolation":"LINEAR" },{ "input":6,"output":12,"interpolation":"LINEAR" },{ "input":6,"output":13,"interpolation":"LINEAR" },{ "input":6,"output":14,"interpolation":"LINEAR" }],"channels":[{ "sampler":0,"target":{ "node":4,"path":"rotation" } },{ "sampler":1,"target":{ "node":7,"path":"rotation" } },{ "sampler":2,"target":{ "node":10,"path":"rotation" } },{ "sampler":3,"target":{ "node":13,"path":"rotation" } },{ "sampler":4,"target":{ "node":5,"path":"rotation" } },{ "sampler":5,"target":{ "node":8,"path":"rotation" } },{ "sampler":6,"target":{ "node":11,"path":"rotation" } },{ "sampler":7,"target":{ "node":14,"path":"rotation" } }] },{ "name":"Run","samplers":[{ "input":15,"output":16,"interpolation":"LINEAR" },{ "input":15,"output":17,"interpolation":"LINEAR" },{ "input":15,"output":18,"interpolation":"LINEAR" },{ "input":15,"output":19,"interpolation":"LINEAR" },{ "input":15,"output":20,"interpolation":"LINEAR" },{ "input":15,"output":21,"interpolation":"LINEAR" },{ "input":15,"output":22,"interpolation":"LINEAR" },{ "input":15,"output":23,"interpolation":"LINEAR" }],"channels":[{ "sampler":0,"target":{ "node":4,"path":"rotation" } },{ "sampler":1,"target":{ "node":7,"path":"rotation" } },{ "sampler":2,"target":{ "node":10,"path":"rotation" } },{ "sampler":3,"target":{ "node":13,"path":"rotation" } },{ "sampler":4,"target":{ "node":5,"path":"rotation" } },{ "sampler":5,"target":{ "node":8,"path":"rotation" } },{ "sampler":6,"target":{ "node":11,"path":"rotation" } },{ "sampler":7,"target":{ "node":14,"path":"rotation" } }] },{ "name":"Idle","samplers":[{ "input":24,"output":25,"interpolation":"LINEAR" },{ "input":24,"output":26,"interpolation":"LINEAR" },{ "input":24,"output":27,"interpolation":"LINEAR" },{ "input":24,"output":28,"interpolation":"LINEAR" },{ "input":24,"output":29,"interpolation":"LINEAR" },{ "input":24,"output":30,"interpolation":"LINEAR" },{ "input":24,"output":31,"interpolation":"LINEAR" },{ "input":24,"output":32,"interpolation":"LINEAR" }],"channels":[{ "sampler":0,"target":{ "node":4,"path":"rotation" } },{ "sampler":1,"target":{ "node":7,"path":"rotation" } },{ "sampler":2,"target":{ "node":10,"path":"rotation" } },{ "sampler":3,"target":{ "node":13,"path":"rotation" } },{ "sampler":4,"target":{ "node":5,"path":"rotation" } },{ "sampler":5,"target":{ "node":8,"path":"rotation" } },{ "sampler":6,"target":{ "node":11,"path":"rotation" } },{ "sampler":7,"target":{ "node":14,"path":"rotation" } }] } ]
}