{
  "asset": { "version": "2.0", "generator": "bevylog skeletal generator" },
  "scene": 0,
  "scenes": [{ "nodes": [0] }],
  "nodes": [
    { "name": "Armature", "mesh": 0, "skin": 0, "children": [1] },
    { "name": "Bone0", "children": [2] },
    { "name": "Bone1", "translation": [1.0, 0.0, 0.0] }
  ],
  "skins": [
    { "inverseBindMatrices": 5, "joints": [1, 2], "skeleton": 0 }
  ],
  "meshes": [
    {
      "name": "Limb",
      "primitives": [
        {
          "attributes": { "POSITION": 0, "NORMAL": 1, "JOINTS_0": 2, "WEIGHTS_0": 3 },
          "indices": 4,
          "material": 0
        }
      ]
    }
  ],
  "materials": [
    {
      "name": "LimbMaterial",
      "pbrMetallicRoughness": { "baseColorFactor": [0.8, 0.4, 0.2, 1.0], "metallicFactor": 0.0, "roughnessFactor": 0.9 },
      "doubleSided": true
    }
  ],
  "buffers": [{ "uri": "skeletal_arm.bin", "byteLength": 392 }],
  "bufferViews": [
    { "buffer": 0, "byteOffset": 0, "byteLength": 48, "target": 34962 },
    { "buffer": 0, "byteOffset": 48, "byteLength": 48, "target": 34962 },
    { "buffer": 0, "byteOffset": 96, "byteLength": 32, "target": 34962 },
    { "buffer": 0, "byteOffset": 128, "byteLength": 64, "target": 34962 },
    { "buffer": 0, "byteOffset": 192, "byteLength": 12, "target": 34963 },
    { "buffer": 0, "byteOffset": 204, "byteLength": 128 },
    { "buffer": 0, "byteOffset": 332, "byteLength": 12 },
    { "buffer": 0, "byteOffset": 344, "byteLength": 48 }
  ],
  "accessors": [
    { "bufferView": 0, "componentType": 5126, "count": 4, "type": "VEC3", "min": [0.0, -0.1, 0.0], "max": [2.0, 0.1, 0.0] },
    { "bufferView": 1, "componentType": 5126, "count": 4, "type": "VEC3" },
    { "bufferView": 2, "componentType": 5123, "count": 4, "type": "VEC4" },
    { "bufferView": 3, "componentType": 5126, "count": 4, "type": "VEC4" },
    { "bufferView": 4, "componentType": 5123, "count": 6, "type": "SCALAR" },
    { "bufferView": 5, "componentType": 5126, "count": 2, "type": "MAT4" },
    { "bufferView": 6, "componentType": 5126, "count": 3, "type": "SCALAR", "min": [0.0], "max": [1.0] },
    { "bufferView": 7, "componentType": 5126, "count": 3, "type": "VEC4" }
  ],
  "animations": [
    {
      "name": "Swing",
      "samplers": [{ "input": 6, "output": 7, "interpolation": "LINEAR" }],
      "channels": [{ "sampler": 0, "target": { "node": 2, "path": "rotation" } }]
    }
  ]
}